<?xml version="1.0" encoding="UTF-8" standalone="no"?>
<!-- Created with Inkscape (http://www.inkscape.org/) -->

<svg
   xmlns:dc="http://purl.org/dc/elements/1.1/"
   xmlns:cc="http://creativecommons.org/ns#"
   xmlns:rdf="http://www.w3.org/1999/02/22-rdf-syntax-ns#"
   xmlns:svg="http://www.w3.org/2000/svg"
   xmlns="http://www.w3.org/2000/svg"
   xmlns:sodipodi="http://sodipodi.sourceforge.net/DTD/sodipodi-0.dtd"
   xmlns:inkscape="http://www.inkscape.org/namespaces/inkscape"
   width="565.51398"
   height="95"
   viewBox="0 0 565.51398 95"
   version="1.1"
   id="svg1448"
   inkscape:version="0.92.2 5c3e80d, 2017-08-06"
   sodipodi:docname="20200423.2 - Aigilist Web Logo.svg">
  <defs
     id="defs1442" />
  <sodipodi:namedview
     id="base"
     pagecolor="#ffffff"
     bordercolor="#666666"
     borderopacity="1.0"
     inkscape:pageopacity="0.0"
     inkscape:pageshadow="2"
     inkscape:zoom="1.941542"
     inkscape:cx="337.26974"
     inkscape:cy="-57.233718"
     inkscape:document-units="px"
     inkscape:current-layer="layer3"
     showgrid="false"
     units="px"
     inkscape:showpageshadow="false"
     inkscape:window-width="1920"
     inkscape:window-height="1155"
     inkscape:window-x="0"
     inkscape:window-y="1"
     inkscape:window-maximized="1"
     inkscape:snap-global="true"
     inkscape:snap-intersection-paths="true"
     inkscape:object-paths="false"
     fit-margin-top="0"
     fit-margin-left="0"
     fit-margin-right="0"
     fit-margin-bottom="0" />
  <metadata
     id="metadata1445">
    <rdf:RDF>
      <cc:Work
         rdf:about="">
        <dc:format>image/svg+xml</dc:format>
        <dc:type
           rdf:resource="http://purl.org/dc/dcmitype/StillImage" />
        <dc:title></dc:title>
      </cc:Work>
    </rdf:RDF>
  </metadata>
  <g
     inkscape:groupmode="layer"
     id="layer3"
     inkscape:label="Layer 1">
    <rect
       style="color:#000000;clip-rule:nonzero;display:inline;overflow:visible;visibility:visible;opacity:1;isolation:auto;mix-blend-mode:normal;color-interpolation:sRGB;color-interpolation-filters:linearRGB;solid-color:#000000;solid-opacity:1;fill:#4190d3;fill-opacity:0;fill-rule:nonzero;stroke:none;stroke-width:119.9524231;stroke-linecap:round;stroke-linejoin:round;stroke-miterlimit:4;stroke-dasharray:none;stroke-dashoffset:0;stroke-opacity:1;paint-order:markers stroke fill;color-rendering:auto;image-rendering:auto;shape-rendering:auto;text-rendering:auto;enable-background:accumulate"
       id="rect4134"
       width="565.51398"
       height="95"
       x="0"
       y="0" />
    <g
       id="g1066">
      <path
         inkscape:connector-curvature="0"
         id="path1149"
         d="M 460.43627,11.874993 C 453.67212,11.874993 448.18951,17.358973 448.18951,24.122993 448.18951,30.887003 453.67212,36.369613 460.43627,36.369613 L 485.16336,36.368243 C 487.27032,36.368243 488.97886,38.076783 488.97886,40.183743 488.97886,42.290693 487.27032,43.997873 485.16336,43.997873 L 448.18951,43.996563 V 52.430353 H 485.16604 C 491.93006,52.430353 497.41273,46.947753 497.41273,40.183743 497.41273,33.419723 491.93006,27.935743 485.16604,27.935743 L 460.43895,27.937123 C 458.33186,27.937123 456.62345,26.229943 456.62345,24.122993 456.62345,22.016033 458.33186,20.307483 460.43895,20.307483 L 493.1958,20.308793 V 11.874993 Z"
         style="font-style:normal;font-variant:normal;font-weight:900;font-stretch:normal;font-size:medium;line-height:1000%;font-family:Venera;-inkscape-font-specification:'Venera Heavy';text-align:start;letter-spacing:16.83784866px;word-spacing:8.12334061px;text-anchor:start;fill:#ffffff;fill-opacity:1;stroke:none;stroke-width:1.64356613px;stroke-linecap:butt;stroke-linejoin:miter;stroke-opacity:1" />
      <path
         inkscape:connector-curvature="0"
         id="path1151"
         style="font-style:normal;font-variant:normal;font-weight:900;font-stretch:normal;font-size:medium;line-height:1000%;font-family:Venera;-inkscape-font-specification:'Venera Heavy';text-align:start;letter-spacing:16.83784866px;word-spacing:8.12334061px;text-anchor:start;fill:#ffffff;fill-opacity:1;stroke:none;stroke-width:1.38599014px;stroke-linecap:butt;stroke-linejoin:miter;stroke-opacity:1"
         d="M 230.05079,11.874993 V 52.430353 H 238.48493 V 11.874993 Z" />
      <path
         inkscape:connector-curvature="0"
         id="path1153"
         style="font-style:normal;font-variant:normal;font-weight:900;font-stretch:normal;font-size:medium;line-height:1000%;font-family:Venera;-inkscape-font-specification:'Venera Heavy';text-align:start;letter-spacing:16.83784866px;word-spacing:8.12334061px;text-anchor:start;fill:#ffffff;fill-opacity:1;stroke:none;stroke-width:1.38599014px;stroke-linecap:butt;stroke-linejoin:miter;stroke-opacity:1"
         d="M 325.46416,11.874993 V 52.430353 H 333.8983 V 11.874993 Z" />
      <path
         inkscape:connector-curvature="0"
         id="path1155"
         style="font-style:normal;font-variant:normal;font-weight:900;font-stretch:normal;font-size:medium;line-height:1000%;font-family:Venera;-inkscape-font-specification:'Venera Heavy';text-align:start;letter-spacing:16.83784866px;word-spacing:8.12334061px;text-anchor:start;fill:#ffffff;fill-opacity:1;stroke:none;stroke-width:1.38597727px;stroke-linecap:butt;stroke-linejoin:miter;stroke-opacity:1"
         d="M 420.87747,11.875753 V 52.430353 H 429.31161 V 11.875753 Z"
         sodipodi:nodetypes="ccccc" />
      <path
         style="color:#000000;clip-rule:nonzero;display:inline;overflow:visible;visibility:visible;opacity:1;isolation:auto;mix-blend-mode:normal;color-interpolation:sRGB;color-interpolation-filters:linearRGB;solid-color:#000000;solid-opacity:1;fill:#ffffff;fill-opacity:1;fill-rule:nonzero;stroke:none;stroke-width:4.62719059;stroke-linecap:round;stroke-linejoin:round;stroke-miterlimit:4;stroke-dasharray:none;stroke-dashoffset:0;stroke-opacity:1;paint-order:stroke fill markers;color-rendering:auto;image-rendering:auto;shape-rendering:auto;text-rendering:auto;enable-background:accumulate"
         d="M 352.77634,11.874993 V 38.700243 C 352.77634,46.283403 358.92447,52.430353 366.5075,52.430353 H 401.99956 V 43.996563 H 368.07561 C 364.28417,43.996563 361.21138,40.922323 361.21138,37.130813 V 11.874993 Z"
         id="path1157"
         inkscape:connector-curvature="0"
         sodipodi:nodetypes="cssccsscc" />
      <path
         style="font-style:normal;font-variant:normal;font-weight:900;font-stretch:normal;font-size:medium;line-height:1000%;font-family:Venera;-inkscape-font-specification:'Venera Heavy';text-align:start;letter-spacing:16.83784866px;word-spacing:8.12334061px;text-anchor:start;fill:#ffffff;fill-opacity:1;stroke:none;stroke-width:1.39767802px;stroke-linecap:butt;stroke-linejoin:miter;stroke-opacity:1"
         d="M 271.09323,11.874993 C 263.50999,11.874993 257.36296,18.022023 257.36296,25.605113 V 38.700243 C 257.36296,46.283333 263.50999,52.430353 271.09323,52.430353 H 306.58619 V 28.752003 H 298.15225 V 43.996563 H 272.66128 C 268.87011,43.996563 265.79683,40.922323 265.79683,37.130813 V 27.174543 C 265.79683,23.383023 268.8699,20.308793 272.66128,20.308793 L 306.58619,20.318213 V 11.874993 Z"
         id="path1159"
         inkscape:connector-curvature="0"
         sodipodi:nodetypes="ssssccccssscccs" />
      <path
         sodipodi:nodetypes="ccccccccc"
         inkscape:connector-curvature="0"
         id="path1161"
         d="M 516.2907,11.874993 V 20.308793 H 536.68538 V 52.430353 H 545.11925 V 20.308793 H 565.51393 V 11.874993 Z"
         style="font-style:normal;font-variant:normal;font-weight:900;font-stretch:normal;font-size:medium;line-height:1000%;font-family:Venera;-inkscape-font-specification:'Venera Heavy';text-align:start;letter-spacing:16.83784866px;word-spacing:8.12334061px;text-anchor:start;fill:#ffffff;fill-opacity:1;stroke:none;stroke-width:1.38599694px;stroke-linecap:butt;stroke-linejoin:miter;stroke-opacity:1" />
      <path
         inkscape:connector-curvature="0"
         id="path1163"
         d="M 182.12967,11.874993 C 176.91734,11.881663 172.18151,14.909363 169.9744,19.637573 L 153.08659,52.430353 H 162.5716 L 166.91206,43.996563 H 197.34735 L 201.6878,52.430353 H 211.17281 L 194.28501,19.637573 C 192.07783,14.909363 187.34206,11.881593 182.12967,11.874993 Z M 182.12967,20.308853 C 183.96834,20.310163 185.65599,21.326453 186.51714,22.950943 L 193.00827,35.564073 H 171.25114 L 177.78523,22.867693 C 178.66108,21.288933 180.3242,20.309343 182.12967,20.308853 Z"
         style="color:#000000;clip-rule:nonzero;display:inline;overflow:visible;visibility:visible;opacity:1;isolation:auto;mix-blend-mode:normal;color-interpolation:sRGB;color-interpolation-filters:linearRGB;solid-color:#000000;solid-opacity:1;fill:#ffffff;fill-opacity:1;fill-rule:nonzero;stroke:none;stroke-width:4.51713467;stroke-linecap:round;stroke-linejoin:round;stroke-miterlimit:4;stroke-dasharray:none;stroke-dashoffset:0;stroke-opacity:1;paint-order:stroke fill markers;color-rendering:auto;image-rendering:auto;shape-rendering:auto;text-rendering:auto;enable-background:accumulate" />
    </g>
    <g
       id="g1078">
      <path
         d="M 162.41388,66.197083 Q 160.03444,66.197083 158.72916,67.991843 157.42389,69.772993 157.42389,72.968223 157.42389,79.617003 162.41388,79.617003 164.50772,79.617003 167.48546,78.570043 V 82.105193 Q 165.03804,83.124993 162.01953,83.124993 157.68221,83.124993 155.38436,80.500833 153.0865,77.863073 153.0865,72.941063 153.0865,69.840973 154.21505,67.515963 155.34359,65.177283 157.45104,63.939993 159.57217,62.689093 162.41388,62.689093 165.30996,62.689093 168.23327,64.089563 L 166.87355,67.515963 Q 165.75862,66.985653 164.63014,66.591363 163.5016,66.197083 162.41388,66.197083 Z"
         style="font-style:normal;font-variant:normal;font-weight:bold;font-stretch:normal;font-size:medium;line-height:1000%;font-family:'Open Sans';-inkscape-font-specification:'Open Sans Bold';text-align:start;letter-spacing:7.9507761px;word-spacing:3.83581448px;text-anchor:start;fill:#ffffff;fill-opacity:1;stroke:none;stroke-width:0.65264225px;stroke-linecap:butt;stroke-linejoin:miter;stroke-opacity:1"
         id="path1167"
         inkscape:connector-curvature="0" />
      <path
         d="M 216.71441,72.886623 Q 216.71441,77.822243 214.26705,80.473613 211.81962,83.124993 207.25113,83.124993 202.68265,83.124993 200.23522,80.473613 197.78779,77.822243 197.78779,72.859473 197.78779,67.896643 200.23522,65.286093 202.69626,62.661933 207.27835,62.661933 211.86038,62.661933 214.28066,65.299703 216.71441,67.937463 216.71441,72.886623 Z M 202.20677,72.886623 Q 202.20677,76.217823 203.47121,77.903833 204.73572,79.589843 207.25113,79.589843 212.29549,79.589843 212.29549,72.886623 212.29549,66.169863 207.27835,66.169863 204.76294,66.169863 203.48482,67.869483 202.20677,69.555433 202.20677,72.886623 Z"
         style="font-style:normal;font-variant:normal;font-weight:bold;font-stretch:normal;font-size:medium;line-height:1000%;font-family:'Open Sans';-inkscape-font-specification:'Open Sans Bold';text-align:start;letter-spacing:7.9507761px;word-spacing:3.83581448px;text-anchor:start;fill:#ffffff;fill-opacity:1;stroke:none;stroke-width:0.65264225px;stroke-linecap:butt;stroke-linejoin:miter;stroke-opacity:1"
         id="path1169"
         inkscape:connector-curvature="0" />
      <path
         d="M 263.90388,82.853063 H 258.54683 L 249.89928,67.815043 H 249.77692 Q 250.03524,71.798913 250.03524,73.498463 V 82.853063 H 246.269 V 62.974633 H 251.58529 L 260.21916,77.863073 H 260.31437 Q 260.11042,73.987943 260.11042,72.383603 V 62.974633 H 263.90388 Z"
         style="font-style:normal;font-variant:normal;font-weight:bold;font-stretch:normal;font-size:medium;line-height:1000%;font-family:'Open Sans';-inkscape-font-specification:'Open Sans Bold';text-align:start;letter-spacing:7.9507761px;word-spacing:3.83581448px;text-anchor:start;fill:#ffffff;fill-opacity:1;stroke:none;stroke-width:0.65264225px;stroke-linecap:butt;stroke-linejoin:miter;stroke-opacity:1"
         id="path1171"
         inkscape:connector-curvature="0" />
      <path
         d="M 306.41613,77.332753 Q 306.41613,80.024893 304.4718,81.574943 302.54101,83.124993 299.08745,83.124993 295.90584,83.124993 293.45841,81.928463 V 78.012583 Q 295.47072,78.909963 296.85758,79.277093 298.25806,79.644223 299.41383,79.644223 300.8007,79.644223 301.53488,79.113973 302.28269,78.583653 302.28269,77.536703 302.28269,76.952083 301.95639,76.503353 301.63009,76.041093 300.99103,75.619593 300.36558,75.198093 298.42125,74.273483 296.59927,73.416943 295.68828,72.628313 294.77729,71.839673 294.23344,70.792713 293.68958,69.745833 293.68958,68.345363 293.68958,65.707593 295.47072,64.198373 297.26555,62.689093 300.41995,62.689093 301.97,62.689093 303.37041,63.056223 304.78449,63.423353 306.32093,64.089563 L 304.96122,67.366393 Q 303.37041,66.713723 302.32352,66.455403 301.29018,66.197083 300.28398,66.197083 299.08745,66.197083 298.4484,66.754543 297.80941,67.312013 297.80941,68.209393 297.80941,68.766863 298.06773,69.188363 298.32604,69.596263 298.88351,69.990543 299.45459,70.371283 301.56211,71.377413 304.34938,72.709903 305.38278,74.055933 306.41613,75.388423 306.41613,77.332753 Z"
         style="font-style:normal;font-variant:normal;font-weight:bold;font-stretch:normal;font-size:medium;line-height:1000%;font-family:'Open Sans';-inkscape-font-specification:'Open Sans Bold';text-align:start;letter-spacing:7.9507761px;word-spacing:3.83581448px;text-anchor:start;fill:#ffffff;fill-opacity:1;stroke:none;stroke-width:0.65264225px;stroke-linecap:butt;stroke-linejoin:miter;stroke-opacity:1"
         id="path1173"
         inkscape:connector-curvature="0" />
      <path
         d="M 352.28673,62.974633 V 75.837153 Q 352.28673,78.039793 351.29415,79.698593 350.31518,81.357383 348.45243,82.241153 346.58969,83.124993 344.04706,83.124993 340.21284,83.124993 338.09171,81.167053 335.97066,79.195493 335.97066,75.782783 V 62.974633 H 340.17201 V 75.143723 Q 340.17201,77.441573 341.09661,78.515673 342.02121,79.589843 344.15587,79.589843 346.22256,79.589843 347.14716,78.515673 348.0853,77.427963 348.0853,75.116493 V 62.974633 Z"
         style="font-style:normal;font-variant:normal;font-weight:bold;font-stretch:normal;font-size:medium;line-height:1000%;font-family:'Open Sans';-inkscape-font-specification:'Open Sans Bold';text-align:start;letter-spacing:7.9507761px;word-spacing:3.83581448px;text-anchor:start;fill:#ffffff;fill-opacity:1;stroke:none;stroke-width:0.65264225px;stroke-linecap:butt;stroke-linejoin:miter;stroke-opacity:1"
         id="path1175"
         inkscape:connector-curvature="0" />
      <path
         d="M 381.84125,82.853063 V 62.974633 H 386.05622 V 79.372293 H 394.11909 V 82.853063 Z"
         style="font-style:normal;font-variant:normal;font-weight:bold;font-stretch:normal;font-size:medium;line-height:1000%;font-family:'Open Sans';-inkscape-font-specification:'Open Sans Bold';text-align:start;letter-spacing:7.9507761px;word-spacing:3.83581448px;text-anchor:start;fill:#ffffff;fill-opacity:1;stroke:none;stroke-width:0.65264225px;stroke-linecap:butt;stroke-linejoin:miter;stroke-opacity:1"
         id="path1177"
         inkscape:connector-curvature="0" />
      <path
         d="M 433.28645,82.853063 H 429.07149 V 66.482623 H 423.67361 V 62.974633 H 438.68434 V 66.482623 H 433.28645 Z"
         style="font-style:normal;font-variant:normal;font-weight:bold;font-stretch:normal;font-size:medium;line-height:1000%;font-family:'Open Sans';-inkscape-font-specification:'Open Sans Bold';text-align:start;letter-spacing:7.9507761px;word-spacing:3.83581448px;text-anchor:start;fill:#ffffff;fill-opacity:1;stroke:none;stroke-width:0.65264225px;stroke-linecap:butt;stroke-linejoin:miter;stroke-opacity:1"
         id="path1179"
         inkscape:connector-curvature="0" />
      <path
         d="M 468.23886,82.853063 V 62.974633 H 472.45383 V 82.853063 Z"
         style="font-style:normal;font-variant:normal;font-weight:bold;font-stretch:normal;font-size:medium;line-height:1000%;font-family:'Open Sans';-inkscape-font-specification:'Open Sans Bold';text-align:start;letter-spacing:7.9507761px;word-spacing:3.83581448px;text-anchor:start;fill:#ffffff;fill-opacity:1;stroke:none;stroke-width:0.65264225px;stroke-linecap:butt;stroke-linejoin:miter;stroke-opacity:1"
         id="path1181"
         inkscape:connector-curvature="0" />
      <path
         d="M 519.64331,82.853063 H 514.28625 L 505.63869,67.815043 H 505.51634 Q 505.77466,71.798913 505.77466,73.498463 V 82.853063 H 502.00842 V 62.974633 H 507.32471 L 515.95859,77.863073 H 516.05379 Q 515.84984,73.987943 515.84984,72.383603 V 62.974633 H 519.64331 Z"
         style="font-style:normal;font-variant:normal;font-weight:bold;font-stretch:normal;font-size:medium;line-height:1000%;font-family:'Open Sans';-inkscape-font-specification:'Open Sans Bold';text-align:start;letter-spacing:7.9507761px;word-spacing:3.83581448px;text-anchor:start;fill:#ffffff;fill-opacity:1;stroke:none;stroke-width:0.65264225px;stroke-linecap:butt;stroke-linejoin:miter;stroke-opacity:1"
         id="path1183"
         inkscape:connector-curvature="0" />
      <path
         d="M 557.62783,71.690163 H 565.51397 V 81.996443 Q 563.59679,82.621893 561.89723,82.866603 560.21122,83.124993 558.44368,83.124993 553.94311,83.124993 551.56373,80.487223 549.19789,77.835853 549.19789,72.886623 549.19789,68.073433 551.9444,65.381293 554.70459,62.689093 559.58577,62.689093 562.64504,62.689093 565.48675,63.912833 L 564.08627,67.284793 Q 561.91084,66.197083 559.55862,66.197083 556.82565,66.197083 555.18047,68.032603 553.53522,69.868193 553.53522,72.968223 553.53522,76.204213 554.8541,77.917443 556.18659,79.617003 558.71561,79.617003 560.03449,79.617003 561.39414,79.345073 V 75.198093 H 557.62783 Z"
         style="font-style:normal;font-variant:normal;font-weight:bold;font-stretch:normal;font-size:medium;line-height:1000%;font-family:'Open Sans';-inkscape-font-specification:'Open Sans Bold';text-align:start;letter-spacing:7.9507761px;word-spacing:3.83581448px;text-anchor:start;fill:#ffffff;fill-opacity:1;stroke:none;stroke-width:0.65264225px;stroke-linecap:butt;stroke-linejoin:miter;stroke-opacity:1"
         id="path1185"
         inkscape:connector-curvature="0" />
    </g>
    <g
       id="g1056">
      <path
         sodipodi:nodetypes="cccccccscccccccccccccccsc"
         inkscape:connector-curvature="0"
         style="color:#000000;clip-rule:nonzero;display:inline;overflow:visible;visibility:visible;opacity:1;isolation:auto;mix-blend-mode:normal;color-interpolation:sRGB;color-interpolation-filters:linearRGB;solid-color:#000000;solid-opacity:1;fill:#ffffff;fill-opacity:1;fill-rule:nonzero;stroke:none;stroke-width:1.11686742;stroke-linecap:round;stroke-linejoin:round;stroke-miterlimit:4;stroke-dasharray:none;stroke-dashoffset:0;stroke-opacity:1;paint-order:stroke fill markers;color-rendering:auto;image-rendering:auto;shape-rendering:auto;text-rendering:auto;enable-background:accumulate"
         d="M 1.9472003,42.792443 C -0.65073974,45.395443 -0.64883774,49.611133 1.9516323,52.211823 L 42.788235,93.048213 C 45.388925,95.648903 49.604615,95.650803 52.207835,93.052653 L 93.053075,52.207593 C 95.651035,49.604373 95.649115,45.388693 93.048665,42.788003 L 71.066655,20.805783 C 68.464475,18.203203 64.244785,18.203203 61.642205,20.805783 59.039835,23.408163 59.040025,27.627443 61.642615,30.229813 L 74.200165,42.788003 C 76.800655,45.388693 76.802775,49.604373 74.204615,52.207593 L 72.625705,53.786503 C 70.022705,56.384453 65.806795,56.382543 63.206115,53.782073 L 31.794175,22.369493 C 29.193485,19.769023 24.977586,19.767113 22.374583,22.365053 Z M 20.795676,42.792443 22.374583,41.213533 C 24.977167,38.615803 29.192011,38.617293 31.792695,41.216493 L 53.782085,63.206093 C 56.382565,65.806783 56.384465,70.022683 53.786305,72.625683 L 52.198545,74.213673 C 49.597645,76.799583 45.396095,76.797683 42.797735,74.209453 L 20.800108,52.211823 C 18.199424,49.611133 18.197522,45.395443 20.795676,42.792443 Z"
         id="path1191" />
      <path
         sodipodi:nodetypes="ccccc"
         id="path1193"
         d="M 42.788205,1.9518134 C 40.185825,4.5541734 40.185825,8.7734534 42.788205,11.375833 45.390575,13.978203 49.609855,13.978203 52.212235,11.376043 54.814815,8.7736734 54.814815,4.5539634 52.212235,1.9515934 49.609855,-0.65056661 45.390575,-0.65056661 42.788205,1.9518134 Z"
         style="color:#000000;clip-rule:nonzero;display:inline;overflow:visible;visibility:visible;opacity:1;isolation:auto;mix-blend-mode:normal;color-interpolation:sRGB;color-interpolation-filters:linearRGB;solid-color:#000000;solid-opacity:1;fill:#ffffff;fill-opacity:1;fill-rule:nonzero;stroke:none;stroke-width:1.11686742;stroke-linecap:round;stroke-linejoin:round;stroke-miterlimit:4;stroke-dasharray:none;stroke-dashoffset:0;stroke-opacity:1;paint-order:stroke fill markers;color-rendering:auto;image-rendering:auto;shape-rendering:auto;text-rendering:auto;enable-background:accumulate"
         inkscape:connector-curvature="0" />
    </g>
  </g>
</svg>
