<?xml version="1.0" encoding="UTF-8" standalone="no"?>
<!-- Created with Inkscape (http://www.inkscape.org/) -->

<svg
   xmlns:dc="http://purl.org/dc/elements/1.1/"
   xmlns:cc="http://creativecommons.org/ns#"
   xmlns:rdf="http://www.w3.org/1999/02/22-rdf-syntax-ns#"
   xmlns:svg="http://www.w3.org/2000/svg"
   xmlns="http://www.w3.org/2000/svg"
   xmlns:sodipodi="http://sodipodi.sourceforge.net/DTD/sodipodi-0.dtd"
   xmlns:inkscape="http://www.inkscape.org/namespaces/inkscape"
   width="612.85864"
   height="95"
   viewBox="0 0 612.85865 95"
   version="1.1"
   id="svg1448"
   inkscape:version="0.92.2 5c3e80d, 2017-08-06"
   sodipodi:docname="20210106 - Aigilist Banner Logo.svg">
  <defs
     id="defs1442" />
  <sodipodi:namedview
     id="base"
     pagecolor="#ffffff"
     bordercolor="#666666"
     borderopacity="1.0"
     inkscape:pageopacity="0.0"
     inkscape:pageshadow="2"
     inkscape:zoom="4.2259827"
     inkscape:cx="325.64518"
     inkscape:cy="-24.638166"
     inkscape:document-units="px"
     inkscape:current-layer="layer3"
     showgrid="false"
     units="px"
     inkscape:showpageshadow="false"
     inkscape:window-width="3840"
     inkscape:window-height="2115"
     inkscape:window-x="1920"
     inkscape:window-y="0"
     inkscape:window-maximized="0"
     inkscape:snap-global="true"
     inkscape:snap-intersection-paths="true"
     inkscape:object-paths="true"
     fit-margin-top="0"
     fit-margin-left="0"
     fit-margin-right="0"
     fit-margin-bottom="0"
     inkscape:snap-midpoints="true"
     inkscape:snap-smooth-nodes="true"
     inkscape:snap-object-midpoints="true" />
  <metadata
     id="metadata1445">
    <rdf:RDF>
      <cc:Work
         rdf:about="">
        <dc:format>image/svg+xml</dc:format>
        <dc:type
           rdf:resource="http://purl.org/dc/dcmitype/StillImage" />
        <dc:title></dc:title>
      </cc:Work>
    </rdf:RDF>
  </metadata>
  <g
     inkscape:groupmode="layer"
     id="layer3"
     inkscape:label="Layer 1"
     transform="translate(2.6945142e-4)">
    <rect
       style="color:#000000;clip-rule:nonzero;display:inline;overflow:visible;visibility:visible;opacity:1;isolation:auto;mix-blend-mode:normal;color-interpolation:sRGB;color-interpolation-filters:linearRGB;solid-color:#000000;solid-opacity:1;fill:#ffffff;fill-opacity:0;fill-rule:nonzero;stroke:none;stroke-width:119.9524231;stroke-linecap:round;stroke-linejoin:round;stroke-miterlimit:4;stroke-dasharray:none;stroke-dashoffset:0;stroke-opacity:1;paint-order:markers stroke fill;color-rendering:auto;image-rendering:auto;shape-rendering:auto;text-rendering:auto;enable-background:accumulate"
       id="rect4134"
       width="565.51398"
       height="95"
       x="0"
       y="0" />
    <path
       sodipodi:nodetypes="ccccc"
       id="path973"
       d="M 71.501555,2.0885632 C 68.717085,4.87298 68.717078,9.3874516 71.501556,12.171929 74.285979,14.956352 78.800458,14.956353 81.584922,12.172131 84.369581,9.3877012 84.369587,4.8727587 81.584922,2.0883214 78.800465,-0.69589391 74.285985,-0.69589391 71.501555,2.0885632 Z"
       style="color:#000000;clip-rule:nonzero;display:inline;overflow:visible;visibility:visible;opacity:1;isolation:auto;mix-blend-mode:normal;color-interpolation:sRGB;color-interpolation-filters:linearRGB;solid-color:#000000;solid-opacity:1;fill:#ffffff;fill-opacity:1;fill-rule:nonzero;stroke:none;stroke-width:1.1950078;stroke-linecap:round;stroke-linejoin:round;stroke-miterlimit:4;stroke-dasharray:none;stroke-dashoffset:0;stroke-opacity:1;paint-order:stroke fill markers;color-rendering:auto;image-rendering:auto;shape-rendering:auto;text-rendering:auto;enable-background:accumulate"
       inkscape:connector-curvature="0" />
    <path
       inkscape:connector-curvature="0"
       id="path975"
       d="M 101.7516,22.256227 A 7.1308056,7.1308056 0 1 0 91.668423,32.339404 L 101.7516,42.422581 C 101.7516,42.422581 103.1516,43.959883 103.81077,45.937399 104.46994,47.914915 105.11415,49.144586 101.75298,52.505758 98.391813,55.866926 97.160759,55.224099 95.183243,54.564927 93.205728,53.905756 91.668423,52.505758 91.668423,52.505758 L 71.502069,32.339404 C 71.502069,32.339404 67.996976,28.696156 62.411877,26.834469 56.826786,24.972777 47.973476,25.617085 41.251154,32.339407 34.528831,39.06173 33.884527,47.91503 35.746223,53.500124 37.607919,59.085218 41.251157,62.590316 41.251157,62.590316 L 71.500688,92.839847 A 7.1308601,7.1308601 0 1 0 81.585247,82.755288 L 51.335716,52.505757 C 51.335716,52.505757 49.935716,50.968451 49.276539,48.990944 48.617369,47.01343 47.973163,45.783753 51.334331,42.422585 54.695506,39.061409 55.926563,39.704238 57.904076,40.363407 59.881589,41.022576 61.418889,42.422584 61.418889,42.422584 L 81.585243,62.588938 C 81.585243,62.588938 85.088961,66.230796 90.674054,68.092491 96.259146,69.954185 105.11384,69.311257 111.83616,62.588934 118.55848,55.866612 119.20003,47.013308 117.33833,41.428213 115.47664,35.843118 111.83478,32.339404 111.83478,32.339404 Z"
       style="color:#000000;font-style:normal;font-variant:normal;font-weight:normal;font-stretch:normal;font-size:medium;line-height:normal;font-family:sans-serif;font-variant-ligatures:normal;font-variant-position:normal;font-variant-caps:normal;font-variant-numeric:normal;font-variant-alternates:normal;font-feature-settings:normal;text-indent:0;text-align:start;text-decoration:none;text-decoration-line:none;text-decoration-style:solid;text-decoration-color:#000000;letter-spacing:normal;word-spacing:normal;text-transform:none;writing-mode:lr-tb;direction:ltr;text-orientation:mixed;dominant-baseline:auto;baseline-shift:baseline;text-anchor:start;white-space:normal;shape-padding:0;clip-rule:nonzero;display:inline;overflow:visible;visibility:visible;opacity:1;isolation:auto;mix-blend-mode:normal;color-interpolation:sRGB;color-interpolation-filters:linearRGB;solid-color:#000000;solid-opacity:1;vector-effect:none;fill:#ffffff;fill-opacity:1;fill-rule:evenodd;stroke:none;stroke-width:14.26018524;stroke-linecap:round;stroke-linejoin:round;stroke-miterlimit:4;stroke-dasharray:none;stroke-dashoffset:0;stroke-opacity:1;color-rendering:auto;image-rendering:auto;shape-rendering:auto;text-rendering:auto;enable-background:accumulate" />
    <g
       id="g4413"
       transform="matrix(0.68382127,0,0,0.68382127,170.34948,92.246918)"
       style="fill:#ffffff">
      <g
         transform="translate(-1104.4501,2793.1071)"
         id="g4323"
         style="fill:#ffffff">
        <path
           sodipodi:nodetypes="ccccccccc"
           inkscape:connector-curvature="0"
           id="path4281"
           style="font-style:normal;font-variant:normal;font-weight:900;font-stretch:normal;font-size:medium;line-height:1000%;font-family:Venera;-inkscape-font-specification:'Venera Heavy';text-align:start;letter-spacing:16.83784866px;word-spacing:8.12334061px;text-anchor:start;fill:#ffffff;fill-opacity:1;stroke:none;stroke-width:2.01072788px;stroke-linecap:butt;stroke-linejoin:miter;stroke-opacity:1"
           d="M 1720.3339,-2851.1011 V -2898.372 H 1751.5613 V -2910.6401 H 1676.8383 V -2898.372 H 1708.0657 V -2851.1011 Z" />
        <path
           sodipodi:nodetypes="ssssssccssccscccs"
           inkscape:connector-curvature="0"
           id="path4283"
           d="M 1593.0761,-2910.6401 C 1583.1618,-2910.6401 1575.1254,-2902.6031 1575.1254,-2892.6881 1575.1254,-2882.7741 1583.1618,-2874.7351 1593.0761,-2874.7351 H 1631.8972 C 1635.0361,-2874.7351 1637.5808,-2872.1911 1637.5808,-2869.0521 1637.5808,-2865.9131 1635.0361,-2863.3681 1631.8972,-2863.3681 H 1575.1254 V -2851.1011 H 1631.8972 C 1641.8115,-2851.1011 1649.8484,-2859.1371 1649.8484,-2869.0521 1649.8484,-2878.9661 1641.8115,-2887.0031 1631.8972,-2887.0031 L 1593.0761,-2887.0051 C 1589.9372,-2887.0051 1587.3925,-2889.5501 1587.3925,-2892.6881 1587.3925,-2895.8271 1589.9372,-2898.3721 1593.0761,-2898.3721 L 1645.1777,-2898.3701 V -2910.6401 Z"
           style="color:#000000;clip-rule:nonzero;display:inline;overflow:visible;visibility:visible;opacity:1;isolation:auto;mix-blend-mode:normal;color-interpolation:sRGB;color-interpolation-filters:linearRGB;solid-color:#000000;solid-opacity:1;vector-effect:none;fill:#ffffff;fill-opacity:1;fill-rule:evenodd;stroke:none;stroke-width:20.35752678;stroke-linecap:round;stroke-linejoin:round;stroke-miterlimit:4;stroke-dasharray:none;stroke-dashoffset:0;stroke-opacity:1;paint-order:markers fill stroke;color-rendering:auto;image-rendering:auto;shape-rendering:auto;text-rendering:auto;enable-background:accumulate" />
        <path
           sodipodi:nodetypes="ccssccccc"
           inkscape:connector-curvature="0"
           id="path4285"
           d="M 1446.4242,-2910.6401 H 1434.1547 V -2871.0757 C 1434.1547,-2860.0437 1443.0992,-2851.1011 1454.1312,-2851.1011 H 1508.8774 V -2863.3692 H 1456.4105 C 1450.8946,-2863.3692 1446.4242,-2867.5832 1446.4242,-2873.0991 Z"
           style="color:#000000;clip-rule:nonzero;display:inline;overflow:visible;visibility:visible;opacity:1;isolation:auto;mix-blend-mode:normal;color-interpolation:sRGB;color-interpolation-filters:linearRGB;solid-color:#000000;solid-opacity:1;fill:#ffffff;fill-opacity:1;fill-rule:nonzero;stroke:none;stroke-width:6.73170424;stroke-linecap:round;stroke-linejoin:round;stroke-miterlimit:4;stroke-dasharray:none;stroke-dashoffset:0;stroke-opacity:1;paint-order:stroke fill markers;color-rendering:auto;image-rendering:auto;shape-rendering:auto;text-rendering:auto;enable-background:accumulate" />
        <path
           sodipodi:nodetypes="cccccccsssccscc"
           inkscape:connector-curvature="0"
           id="path4287"
           d="M 1407.1647,-2874.8671 V -2886.8771 H 1344.4518 C 1344.4518,-2893.3491 1349.558,-2898.6281 1355.8561,-2898.6291 L 1407.1647,-2898.6301 V -2910.6401 L 1355.2487,-2910.6381 C 1342.6525,-2910.6381 1332.442,-2900.4281 1332.442,-2887.8321 V -2873.9081 C 1332.442,-2861.3121 1342.6525,-2851.1011 1355.2487,-2851.1011 H 1407.1647 V -2863.1111 H 1355.8561 C 1349.558,-2863.1111 1344.4518,-2868.3941 1344.4518,-2874.8671 Z"
           style="color:#000000;clip-rule:nonzero;display:inline;overflow:visible;visibility:visible;opacity:1;isolation:auto;mix-blend-mode:normal;color-interpolation:sRGB;color-interpolation-filters:linearRGB;solid-color:#000000;solid-opacity:1;fill:#ffffff;fill-opacity:1;fill-rule:nonzero;stroke:none;stroke-width:7.68617249;stroke-linecap:round;stroke-linejoin:round;stroke-miterlimit:4;stroke-dasharray:none;stroke-dashoffset:0;stroke-opacity:1;paint-order:stroke fill markers;color-rendering:auto;image-rendering:auto;shape-rendering:auto;text-rendering:auto;enable-background:accumulate" />
        <path
           sodipodi:nodetypes="ssssccccssssccs"
           inkscape:connector-curvature="0"
           id="path4289"
           d="M 1253.536,-2910.6385 C 1240.9398,-2910.6381 1230.7294,-2900.428 1230.7294,-2887.8318 V -2873.9077 C 1230.7294,-2861.3115 1240.9398,-2851.1011 1253.536,-2851.1011 H 1305.452 V -2883.1011 H 1293.1845 V -2863.1108 H 1254.1435 C 1247.8454,-2863.1108 1242.7392,-2868.217 1242.7392,-2874.5151 V -2887.2244 C 1242.7392,-2893.5225 1247.8454,-2898.6285 1254.1435,-2898.6287 L 1305.452,-2898.6303 V -2910.6401 Z"
           style="color:#000000;clip-rule:nonzero;display:inline;overflow:visible;visibility:visible;opacity:1;isolation:auto;mix-blend-mode:normal;color-interpolation:sRGB;color-interpolation-filters:linearRGB;solid-color:#000000;solid-opacity:1;fill:#ffffff;fill-opacity:1;fill-rule:nonzero;stroke:none;stroke-width:7.68617249;stroke-linecap:round;stroke-linejoin:round;stroke-miterlimit:4;stroke-dasharray:none;stroke-dashoffset:0;stroke-opacity:1;paint-order:stroke fill markers;color-rendering:auto;image-rendering:auto;shape-rendering:auto;text-rendering:auto;enable-background:accumulate" />
        <path
           inkscape:connector-curvature="0"
           id="path4291"
           style="font-style:normal;font-variant:normal;font-weight:900;font-stretch:normal;font-size:medium;line-height:1000%;font-family:Venera;-inkscape-font-specification:'Venera Heavy';text-align:start;letter-spacing:16.83784866px;word-spacing:8.12334061px;text-anchor:start;fill:#ffffff;fill-opacity:1;stroke:none;stroke-width:2.02537274px;stroke-linecap:butt;stroke-linejoin:miter;stroke-opacity:1"
           d="M 1191.4713,-2910.6401 V -2851.1011 H 1203.7394 V -2910.6401 Z" />
        <path
           style="color:#000000;clip-rule:nonzero;display:inline;overflow:visible;visibility:visible;opacity:1;isolation:auto;mix-blend-mode:normal;color-interpolation:sRGB;color-interpolation-filters:linearRGB;solid-color:#000000;solid-opacity:1;fill:#ffffff;fill-opacity:1;fill-rule:nonzero;stroke:none;stroke-width:6.63156796;stroke-linecap:round;stroke-linejoin:round;stroke-miterlimit:4;stroke-dasharray:none;stroke-dashoffset:0;stroke-opacity:1;paint-order:stroke fill markers;color-rendering:auto;image-rendering:auto;shape-rendering:auto;text-rendering:auto;enable-background:accumulate"
           d="M 1121.8434,-2910.6401 C 1114.1912,-2910.6303 1107.2386,-2906.1854 1103.9983,-2899.2439 L 1079.2055,-2851.1011 H 1093.1304 L 1099.5025,-2863.4827 H 1144.1843 L 1150.5565,-2851.1011 H 1164.4814 L 1139.6885,-2899.2439 C 1136.4482,-2906.1854 1129.4957,-2910.6304 1121.8434,-2910.6401 Z M 1121.8434,-2898.2584 C 1124.5427,-2898.2565 1127.0204,-2896.7645 1128.2846,-2894.3796 L 1137.8142,-2875.8624 H 1105.8727 L 1115.4654,-2894.5018 C 1116.7512,-2896.8196 1119.1928,-2898.2577 1121.8434,-2898.2584 Z"
           id="path4293"
           inkscape:connector-curvature="0" />
        <path
           d="M 1535.8673,-2910.6401 V -2851.1011 H 1548.1354 V -2910.6401 Z"
           style="font-style:normal;font-variant:normal;font-weight:900;font-stretch:normal;font-size:medium;line-height:1000%;font-family:Venera;-inkscape-font-specification:'Venera Heavy';text-align:start;letter-spacing:16.83784866px;word-spacing:8.12334061px;text-anchor:start;fill:#ffffff;fill-opacity:1;stroke:none;stroke-width:2.02537274px;stroke-linecap:butt;stroke-linejoin:miter;stroke-opacity:1"
           id="path4295"
           inkscape:connector-curvature="0" />
      </g>
      <path
         inkscape:connector-curvature="0"
         id="path4249"
         style="font-style:normal;font-variant:normal;font-weight:bold;font-stretch:normal;font-size:medium;line-height:1000%;font-family:'Open Sans';-inkscape-font-specification:'Open Sans Bold';text-align:start;letter-spacing:7.9507761px;word-spacing:3.83581448px;text-anchor:start;fill:#ffffff;fill-opacity:1;stroke:none;stroke-width:0.9494648px;stroke-linecap:butt;stroke-linejoin:miter;stroke-opacity:1"
         d="M -11.675303,-37.965907 Q -15.136903,-37.965907 -17.035803,-35.354907 -18.934703,-32.763607 -18.934703,-28.115207 -18.934703,-18.442607 -11.675303,-18.442607 -8.6291029,-18.442607 -4.2971029,-19.965707 V -14.822707 Q -7.8576029,-13.339107 -12.249003,-13.339107 -18.558903,-13.339107 -21.901803,-17.156807 -25.244703,-20.994207 -25.244703,-28.154707 -25.244703,-32.664707 -23.602903,-36.047207 -21.961103,-39.449507 -18.895203,-41.249507 -15.809403,-43.069307 -11.675303,-43.069307 -7.4620029,-43.069307 -3.2092029,-41.031907 L -5.1873029,-36.047207 Q -6.8093029,-36.818707 -8.4510029,-37.392307 -10.092803,-37.965907 -11.675303,-37.965907 Z" />
      <path
         inkscape:connector-curvature="0"
         id="path4251"
         style="font-style:normal;font-variant:normal;font-weight:bold;font-stretch:normal;font-size:medium;line-height:1000%;font-family:'Open Sans';-inkscape-font-specification:'Open Sans Bold';text-align:start;letter-spacing:7.9507761px;word-spacing:3.83581448px;text-anchor:start;fill:#ffffff;fill-opacity:1;stroke:none;stroke-width:0.9494648px;stroke-linecap:butt;stroke-linejoin:miter;stroke-opacity:1"
         d="M 75.360797,-28.233907 Q 75.360797,-21.053607 71.800397,-17.196407 68.239897,-13.339107 61.593597,-13.339107 54.947397,-13.339107 51.386897,-17.196407 47.826397,-21.053607 47.826397,-28.273407 47.826397,-35.493407 51.386897,-39.291207 54.967197,-43.108807 61.633197,-43.108807 68.299197,-43.108807 71.820197,-39.271407 75.360797,-35.434007 75.360797,-28.233907 Z M 54.255097,-28.233907 Q 54.255097,-23.387707 56.094597,-20.934907 57.934197,-18.482107 61.593597,-18.482107 68.932197,-18.482107 68.932197,-28.233907 68.932197,-38.005507 61.633197,-38.005507 57.973797,-38.005507 56.114397,-35.532907 54.255097,-33.080107 54.255097,-28.233907 Z" />
      <path
         inkscape:connector-curvature="0"
         id="path4253"
         style="font-style:normal;font-variant:normal;font-weight:bold;font-stretch:normal;font-size:medium;line-height:1000%;font-family:'Open Sans';-inkscape-font-specification:'Open Sans Bold';text-align:start;letter-spacing:7.9507761px;word-spacing:3.83581448px;text-anchor:start;fill:#ffffff;fill-opacity:1;stroke:none;stroke-width:0.9494648px;stroke-linecap:butt;stroke-linejoin:miter;stroke-opacity:1"
         d="M 152.0516,-13.734707 H 144.2582 L 131.6777,-35.612107 H 131.4997 Q 131.8755,-29.816307 131.8755,-27.343807 V -13.734707 H 126.3964 V -42.653907 H 134.1305 L 146.6911,-20.994207 H 146.8296 Q 146.5329,-26.631707 146.5329,-28.965707 V -42.653907 H 152.0516 Z" />
      <path
         inkscape:connector-curvature="0"
         id="path4255"
         style="font-style:normal;font-variant:normal;font-weight:bold;font-stretch:normal;font-size:medium;line-height:1000%;font-family:'Open Sans';-inkscape-font-specification:'Open Sans Bold';text-align:start;letter-spacing:7.9507761px;word-spacing:3.83581448px;text-anchor:start;fill:#ffffff;fill-opacity:1;stroke:none;stroke-width:0.9494648px;stroke-linecap:butt;stroke-linejoin:miter;stroke-opacity:1"
         d="M 221.9383,-21.765707 Q 221.9383,-17.849207 219.1097,-15.594107 216.3008,-13.339107 211.2765,-13.339107 206.6479,-13.339107 203.0874,-15.079807 V -20.776707 Q 206.0149,-19.471207 208.0325,-18.937107 210.0699,-18.403007 211.7513,-18.403007 213.7689,-18.403007 214.8371,-19.174407 215.925,-19.945907 215.925,-21.469007 215.925,-22.319507 215.4503,-22.972307 214.9756,-23.644807 214.0459,-24.258007 213.1359,-24.871207 210.3073,-26.216307 207.6567,-27.462407 206.3314,-28.609707 205.0061,-29.757007 204.2149,-31.280107 203.4237,-32.803107 203.4237,-34.840607 203.4237,-38.678007 206.0149,-40.873607 208.626,-43.069307 213.215,-43.069307 215.4701,-43.069307 217.5074,-42.535207 219.5646,-42.001107 221.7998,-41.031907 L 219.8217,-36.264807 Q 217.5074,-37.214307 215.9844,-37.590107 214.4811,-37.965907 213.0172,-37.965907 211.2765,-37.965907 210.3468,-37.154907 209.4172,-36.343907 209.4172,-35.038407 209.4172,-34.227407 209.793,-33.614107 210.1688,-33.020707 210.9798,-32.447107 211.8106,-31.893207 214.8767,-30.429507 218.9316,-28.491007 220.435,-26.532807 221.9383,-24.594307 221.9383,-21.765707 Z" />
      <path
         inkscape:connector-curvature="0"
         id="path4257"
         style="font-style:normal;font-variant:normal;font-weight:bold;font-stretch:normal;font-size:medium;line-height:1000%;font-family:'Open Sans';-inkscape-font-specification:'Open Sans Bold';text-align:start;letter-spacing:7.9507761px;word-spacing:3.83581448px;text-anchor:start;fill:#ffffff;fill-opacity:1;stroke:none;stroke-width:0.9494648px;stroke-linecap:butt;stroke-linejoin:miter;stroke-opacity:1"
         d="M 296.7104,-42.653907 V -23.941507 Q 296.7104,-20.737107 295.2664,-18.323907 293.8422,-15.910607 291.1323,-14.624907 288.4223,-13.339107 284.7233,-13.339107 279.1453,-13.339107 276.0595,-16.187507 272.9738,-19.055807 272.9738,-24.020607 V -42.653907 H 279.0859 V -24.950307 Q 279.0859,-21.607407 280.431,-20.044807 281.7761,-18.482107 284.8816,-18.482107 287.8882,-18.482107 289.2334,-20.044807 290.5982,-21.627207 290.5982,-24.989907 V -42.653907 Z" />
      <path
         inkscape:connector-curvature="0"
         id="path4259"
         style="font-style:normal;font-variant:normal;font-weight:bold;font-stretch:normal;font-size:medium;line-height:1000%;font-family:'Open Sans';-inkscape-font-specification:'Open Sans Bold';text-align:start;letter-spacing:7.9507761px;word-spacing:3.83581448px;text-anchor:start;fill:#ffffff;fill-opacity:1;stroke:none;stroke-width:0.9494648px;stroke-linecap:butt;stroke-linejoin:miter;stroke-opacity:1"
         d="M 347.746,-13.734707 V -42.653907 H 353.8779 V -18.798607 H 365.6078 V -13.734707 Z" />
      <path
         inkscape:connector-curvature="0"
         id="path4261"
         style="font-style:normal;font-variant:normal;font-weight:bold;font-stretch:normal;font-size:medium;line-height:1000%;font-family:'Open Sans';-inkscape-font-specification:'Open Sans Bold';text-align:start;letter-spacing:7.9507761px;word-spacing:3.83581448px;text-anchor:start;fill:#ffffff;fill-opacity:1;stroke:none;stroke-width:0.9494648px;stroke-linecap:butt;stroke-linejoin:miter;stroke-opacity:1"
         d="M 430.6283,-13.734707 H 424.4964 V -37.550507 H 416.6435 V -42.653907 H 438.4812 V -37.550507 H 430.6283 Z" />
      <path
         inkscape:connector-curvature="0"
         id="path4263"
         style="font-style:normal;font-variant:normal;font-weight:bold;font-stretch:normal;font-size:medium;line-height:1000%;font-family:'Open Sans';-inkscape-font-specification:'Open Sans Bold';text-align:start;letter-spacing:7.9507761px;word-spacing:3.83581448px;text-anchor:start;fill:#ffffff;fill-opacity:1;stroke:none;stroke-width:0.9494648px;stroke-linecap:butt;stroke-linejoin:miter;stroke-opacity:1"
         d="M 489.5168,-13.734707 V -42.653907 H 495.6487 V -13.734707 Z" />
      <path
         inkscape:connector-curvature="0"
         id="path4265"
         style="font-style:normal;font-variant:normal;font-weight:bold;font-stretch:normal;font-size:medium;line-height:1000%;font-family:'Open Sans';-inkscape-font-specification:'Open Sans Bold';text-align:start;letter-spacing:7.9507761px;word-spacing:3.83581448px;text-anchor:start;fill:#ffffff;fill-opacity:1;stroke:none;stroke-width:0.9494648px;stroke-linecap:butt;stroke-linejoin:miter;stroke-opacity:1"
         d="M 572.3396,-13.734707 H 564.5461 L 551.9656,-35.612107 H 551.7876 Q 552.1634,-29.816307 552.1634,-27.343807 V -13.734707 H 546.6843 V -42.653907 H 554.4185 L 566.979,-20.994207 H 567.1175 Q 566.8208,-26.631707 566.8208,-28.965707 V -42.653907 H 572.3396 Z" />
      <path
         inkscape:connector-curvature="0"
         id="path4267"
         style="font-style:normal;font-variant:normal;font-weight:bold;font-stretch:normal;font-size:medium;line-height:1000%;font-family:'Open Sans';-inkscape-font-specification:'Open Sans Bold';text-align:start;letter-spacing:7.9507761px;word-spacing:3.83581448px;text-anchor:start;fill:#ffffff;fill-opacity:1;stroke:none;stroke-width:0.9494648px;stroke-linecap:butt;stroke-linejoin:miter;stroke-opacity:1"
         d="M 635.6391,-29.974507 H 647.1119 V -14.980907 Q 644.3227,-14.071007 641.8502,-13.715007 639.3974,-13.339107 636.826,-13.339107 630.2786,-13.339107 626.817,-17.176607 623.3752,-21.033807 623.3752,-28.233907 623.3752,-35.236207 627.3708,-39.152707 631.3864,-43.069307 638.4875,-43.069307 642.9381,-43.069307 647.0723,-41.289007 L 645.0348,-36.383507 Q 641.87,-37.965907 638.448,-37.965907 634.4721,-37.965907 632.0787,-35.295607 629.6852,-32.625107 629.6852,-28.115207 629.6852,-23.407507 631.6039,-20.915107 633.5424,-18.442607 637.2216,-18.442607 639.1403,-18.442607 641.1183,-18.838207 V -24.871207 H 635.6391 Z" />
    </g>
  </g>
</svg>
